<?xml version="1.0" encoding="utf-8"?>
<!-- Generator: Adobe Illustrator 16.2.1, SVG Export Plug-In . SVG Version: 6.00 Build 0)  -->
<!DOCTYPE svg PUBLIC "-//W3C//DTD SVG 1.1 Tiny//EN" "http://www.w3.org/Graphics/SVG/1.1/DTD/svg11-tiny.dtd">
<svg version="1.1" baseProfile="tiny" id="Layer_1" xmlns="http://www.w3.org/2000/svg" xmlns:xlink="http://www.w3.org/1999/xlink"
	 x="0px" y="0px" width="43px" height="36px" viewBox="0 0 43 36" xml:space="preserve">
<g>
	<path fill-rule="evenodd" fill="#FFFFFF" d="M32.364,0H10.751c-3.43,0-6.21,2.78-6.21,6.21v22.77c0,3.43,2.78,6.022,6.21,6.022
		h21.613c3.43,0,6.21-2.593,6.21-6.022V6.21C38.574,2.78,35.794,0,32.364,0z M34.56,26.845c0,2.287-1.322,4.172-3.608,4.172h-18.63
		c-2.287,0-3.766-1.885-3.766-4.172v-8.809h3.004c0.302-5.428,4.549-9.792,10.054-9.792c5.504,0,9.752,4.364,10.055,9.792h2.892
		V26.845z M35.528,7.934c0,1.144-0.927,2.07-2.07,2.07h-1.819c-1.144,0-2.07-0.927-2.07-2.07V6.082c0-1.143,0.927-2.069,2.07-2.069
		h1.819c1.144,0,2.07,0.927,2.07,2.069V7.934z M21.7,12.322c-3.482,0-6.048,2.889-6.048,6.372s2.565,6.242,6.048,6.242
		c3.483,0,5.984-2.759,5.984-6.242S25.184,12.322,21.7,12.322z"/>
</g>
</svg>
