<?xml version="1.0" encoding="utf-8"?>
<!-- Generator: Adobe Illustrator 16.2.1, SVG Export Plug-In . SVG Version: 6.00 Build 0)  -->
<!DOCTYPE svg PUBLIC "-//W3C//DTD SVG 1.1 Tiny//EN" "http://www.w3.org/Graphics/SVG/1.1/DTD/svg11-tiny.dtd">
<svg version="1.1" baseProfile="tiny" id="Layer_1" xmlns="http://www.w3.org/2000/svg" xmlns:xlink="http://www.w3.org/1999/xlink"
	 x="0px" y="0px" width="43px" height="36px" viewBox="0 0 43 36" xml:space="preserve">
<path fill="#FFFFFF" d="M42.556,5.135c-1.553,0.686-3.406,0.911-5.158,1.119c1.787-1.072,3.283-2.831,3.932-4.854
	c-1.675,0.995-3.468,1.777-5.441,2.164c-1.58-1.683-3.831-2.734-6.323-2.734c-4.784,0-8.598,3.876-8.598,8.659
	c0,0.684,0.076,1.892,0.225,2.523C13.992,11.653,8.514,8.203,4.24,2.963C3.495,4.241,3.067,5.729,3.067,7.318
	c0,3.005,2.262,5.657,4.587,7.211c-1.42-0.046-3.487-0.435-4.656-1.082c-0.001,0.033-0.001,0.072-0.001,0.108
	c0,3.629,4.127,14.535,10.869,14.659c-2.964,2.322-6.502,3.038-10.562,3.038c-0.699,0-1.388-0.042-2.066-0.124
	c3.833,2.459,8.189,4.87,13.082,4.87c15.936,0,23.937-14.055,23.937-25.503c0-0.376-0.008-0.75-0.024-1.123
	C39.926,8.151,41.395,6.869,42.556,5.135z"/>
</svg>
